<svg xmlns="http://www.w3.org/2000/svg" xmlns:xlink="http://www.w3.org/1999/xlink" width="500" zoomAndPan="magnify" viewBox="0 0 375 374.999991" height="500" preserveAspectRatio="xMidYMid meet" version="1.0"><defs><clipPath id="c8ea74e90f"><path d="M 223 49.070312 L 244 49.070312 L 244 80 L 223 80 Z M 223 49.070312 " clip-rule="nonzero"/></clipPath></defs><rect x="-37.5" width="450" fill="#ffffff" y="-37.499999" height="449.999989" fill-opacity="1"/><rect x="-37.5" width="450" fill="#ffffff" y="-37.499999" height="449.999989" fill-opacity="1"/><rect x="-37.5" width="450" fill="#ffffff" y="-37.499999" height="449.999989" fill-opacity="1"/><path fill="#5e17eb" d="M 159.445312 132.484375 L 139.652344 132.484375 L 139.652344 243.96875 C 126.570312 240.378906 109.832031 245.460938 97.132812 258.171875 C 80.070312 275.242188 76.761719 299.609375 89.738281 312.597656 C 102.71875 325.582031 127.070312 322.269531 144.128906 305.199219 C 153.816406 295.503906 159.070312 283.457031 159.425781 272.476562 L 159.445312 272.476562 L 159.445312 132.484375 " fill-opacity="1" fill-rule="nonzero"/><path fill="#5e17eb" d="M 298 102.617188 L 278.207031 102.617188 L 278.207031 214.097656 C 265.125 210.511719 248.386719 215.589844 235.6875 228.300781 C 218.625 245.371094 215.316406 269.738281 228.292969 282.722656 C 241.273438 295.710938 265.621094 292.402344 282.683594 275.328125 C 292.375 265.632812 297.625 253.582031 297.976562 242.605469 L 298 242.605469 L 298 102.617188 " fill-opacity="1" fill-rule="nonzero"/><path fill="#5e17eb" d="M 159.445312 132.484375 L 179.238281 132.484375 L 179.238281 162.359375 L 159.445312 162.359375 L 159.445312 132.484375 " fill-opacity="1" fill-rule="nonzero"/><path fill="#5e17eb" d="M 179.238281 102.617188 L 199.03125 102.617188 L 199.03125 162.359375 L 179.238281 162.359375 L 179.238281 102.617188 " fill-opacity="1" fill-rule="nonzero"/><path fill="#5e17eb" d="M 199.03125 102.617188 L 218.824219 102.617188 L 218.824219 132.484375 L 199.03125 132.484375 L 199.03125 102.617188 " fill-opacity="1" fill-rule="nonzero"/><g clip-path="url(#c8ea74e90f)"><path fill="#5e17eb" d="M 223.714844 49.308594 L 243.515625 49.308594 L 243.515625 79.183594 L 223.714844 79.183594 L 223.714844 49.308594 " fill-opacity="1" fill-rule="nonzero"/></g><path fill="#5e17eb" d="M 142.515625 79.183594 L 162.308594 79.183594 L 162.308594 109.050781 L 142.515625 109.050781 L 142.515625 79.183594 " fill-opacity="1" fill-rule="nonzero"/><path fill="#5e17eb" d="M 218.824219 132.484375 L 238.617188 132.484375 L 238.617188 162.359375 L 218.824219 162.359375 L 218.824219 132.484375 " fill-opacity="1" fill-rule="nonzero"/><path fill="#5e17eb" d="M 238.617188 102.617188 L 258.410156 102.617188 L 258.410156 162.359375 L 238.617188 162.359375 L 238.617188 102.617188 " fill-opacity="1" fill-rule="nonzero"/><path fill="#5e17eb" d="M 258.410156 102.617188 L 278.207031 102.617188 L 278.207031 132.484375 L 258.410156 132.484375 L 258.410156 102.617188 " fill-opacity="1" fill-rule="nonzero"/></svg>